inDegrees=yes
name=ik_lifting_orientations
DataType=double
version=3
OpenSimVersion=4.5-2024-01-10-34fd6af
endheader
time	pelvis_tilt	pelvis_list	pelvis_rotation	pelvis_tx	pelvis_ty	pelvis_tz	hip_flexion_r	hip_adduction_r	hip_rotation_r	knee_angle_r	knee_angle_r_beta	ankle_angle_r	subtalar_angle_r	mtp_angle_r	hip_flexion_l	hip_adduction_l	hip_rotation_l	knee_angle_l	knee_angle_l_beta	ankle_angle_l	subtalar_angle_l	mtp_angle_l	lumbar_extension	lumbar_bending	lumbar_rotation	arm_flex_r	arm_add_r	arm_rot_r	elbow_flex_r	pro_sup_r	wrist_flex_r	wrist_dev_r	arm_flex_l	arm_add_l	arm_rot_l	elbow_flex_l	pro_sup_l	wrist_flex_l	wrist_dev_l
0.71	-0.5162078922959048	1.3270719649254	-87.9635862573127	0	0.9399999998679526	0	44.89937011257886	-10.10176074836834	0	59.82628622253674	1.044165673823787	-5.025281076740768	0	0	44.89937011257886	-10.10176074836834	0	59.82628622253674	1.044165673823787	-5.025281076740768	0	0	-1.787152947258727	0.4240922636496842	-0.02525118848101747	3.165059484409279	-6.53876800976223	-4.345224246217528	0.1684591119142162	1.723172577425584	0	0	0	-11.72713709931777	0	88.30368603414203	1.723172577425584	0	0
0.72	-0.5378325056060062	1.269360282958868	-87.77639614583754	0	0.9399999998679526	0	44.89940391291424	-10.10164098080815	0	59.82633194877673	1.044166471897229	-5.02524224314489	0	0	44.89940391291424	-10.10164098080815	0	59.82633194877673	1.044166471897229	-5.02524224314489	0	0	-2.212128177030479	0.4505437970625424	-0.1508176176573931	3.496829240538013	-7.080109402881898	-4.55666693473592	0.2153488678963243	1.722770095957105	0	0	0	-11.72769947181161	0	88.30408219754963	1.722770095957105	0	0
0.73	-0.4984874016667571	1.338654537830904	-88.01662057769749	0	0.9399999998679526	0	44.89943425469728	-10.10153363236717	0	59.82637302351942	1.044167188786729	-5.025207453005871	0	0	44.89943425469728	-10.10153363236717	0	59.82637302351942	1.044167188786729	-5.025207453005871	0	0	-2.707901473903366	0.3857577835837101	0.2180603718909589	3.91345749779676	-7.62226086652554	-4.902369790717798	0.2551263079226919	1.722408679731597	0	0	0	-11.72820459386887	0	88.30443794035357	1.722408679731597	0	0
0.74	-0.5073115806048911	1.47280289952853	-88.07755891519051	0	0.9399999998679526	0	44.89946034266169	-10.10144145464157	0	59.82640835987553	1.044167805522489	-5.02517759173862	0	0	44.89946034266169	-10.10144145464157	0	59.82640835987553	1.044167805522489	-5.02517759173862	0	0	-3.133083719109619	0.3723229028147288	0.4092851186234744	4.291557122486404	-8.152502009137839	-5.291908754646184	0.3465234335328406	1.722097846061272	0	0	0	-11.72863911537807	0	88.30474389463946	1.722097846061272	0	0
0.75	-0.5382678185926214	1.584087078288813	-87.83328437886104	0	0.9399999998679526	0	44.89948234936752	-10.10136381042013	0	59.82643819010494	1.044168326158208	-5.025152449251347	0	0	44.89948234936752	-10.10136381042013	0	59.82643819010494	1.044168326158208	-5.025152449251347	0	0	-3.33248725361413	0.3967721864046864	0.2337040258875342	4.330744152678447	-8.690255703588955	-5.691557001329575	0.5073049962535598	1.721835551489191	0	0	0	-11.72900588156238	0	88.30500207178581	1.721835551489191	0	0
0.76	-0.5652167693357846	1.833827965779852	-87.82099929962295	0	0.9399999998679526	0	44.89951359054493	-10.10125357610865	0	59.82648051084999	1.044169064794551	-5.025116759543088	0	0	44.89951359054493	-10.10125357610865	0	59.82648051084999	1.044169064794551	-5.025116759543088	0	0	-3.895405828150081	0.4165466305804352	-1.154056733702806	5.062396058828351	-9.130312998827053	-4.616882304416139	0.8295133213037796	1.721463259035828	0	0	0	-11.72952636511973	0	88.30536852009502	1.721463259035828	0	0
0.77	-0.5706070606613347	2.207039630726925	-87.88697398850918	0	0.9399999998679526	0	44.89957760835149	-10.10102858415496	0	59.8265673229496	1.04417057995152	-5.025044019891378	0	0	44.89957760835149	-10.10102858415496	0	59.8265673229496	1.04417057995152	-5.025044019891378	0	0	-4.39610387920211	0.3982423551292885	-0.5156193182745636	5.491270773695326	-9.619350040048591	-5.564464448790411	1.254297466391448	1.72069991626568	0	0	0	-11.73059397398223	0	88.30611988014469	1.72069991626568	0	0
0.78	-0.6310432151807492	2.39386815307766	-87.50363953110286	0	0.9399999998679526	0	44.89965789724204	-10.10074768463324	0	59.82667638033741	1.044172483362011	-5.024953341788204	0	0	44.89965789724204	-10.10074768463324	0	59.82667638033741	1.044172483362011	-5.024953341788204	0	0	-5.069205312821299	0.4538131482748062	-0.2080460962799168	5.836913997190189	-10.08258226288805	-6.731102149639825	2.031793823710319	1.719741747119799	0	0	0	-11.73193489565577	0	88.30706300828885	1.719741747119799	0	0
0.79	-0.7049601823568959	2.887603117253976	-87.45855009803633	0	0.9399999998679526	0	44.89972270882123	-10.10052110509827	0	59.82676437625416	1.044174019180487	-5.024880234325532	0	0	44.89972270882123	-10.10052110509827	0	59.82676437625416	1.044174019180487	-5.024880234325532	0	0	-5.46750960177505	0.4834655789344947	0.3279845155783385	6.212494787361571	-10.47242243006336	-7.659367310429714	2.605465921213766	1.718968309944358	0	0	0	-11.73301721710531	0	88.30782430432124	1.718968309944358	0	0
0.8	-0.8018260510264359	3.44241641066801	-87.08532676160308	0	0.9399999998679526	0	44.8997755419411	-10.10033672548388	0	59.82683612744063	1.044175271474933	-5.024820784958743	0	0	44.8997755419411	-10.10033672548388	0	59.82683612744063	1.044175271474933	-5.024820784958743	0	0	-5.943593207662241	0.5563373054562388	-0.1860954271906777	6.843875408448207	-10.71814759384237	-7.868617037017577	3.180916106706817	1.718337671958321	0	0	0	-11.73389983905881	0	88.30844504278436	1.718337671958321	0	0
0.8100000000000001	-0.8176460015128301	4.131489835146013	-87.20506402438488	0	0.9399999998679526	0	44.89982960045334	-10.10014811904352	0	59.82690950779997	1.04417655220381	-5.024759989637865	0	0	44.89982960045334	-10.10014811904352	0	59.82690950779997	1.04417655220381	-5.024759989637865	0	0	-6.486397752415291	0.4855252861046691	-0.4563974711404761	7.601118302373755	-10.85682762742713	-7.827498372313179	3.847801678903751	1.717692463090587	0	0	0	-11.73480276633413	0	88.30908012339994	1.717692463090587	0	0
0.82	-0.8208688416915612	5.006893573325138	-87.34088814057229	0	0.9399999998679526	0	44.89988095603962	-10.0999692059013	0	59.82697923847901	1.044177769233748	-5.024702352084481	0	0	44.89988095603962	-10.0999692059013	0	59.82697923847901	1.044177769233748	-5.024702352084481	0	0	-6.837680998092235	0.4003043397558487	-0.6964736444395847	8.197049212971109	-10.85512193327424	-7.798772948619839	4.567999131227163	1.717079379758568	0	0	0	-11.73566086474675	0	88.30968358278312	1.717079379758568	0	0
0.83	-0.813931231141109	5.876417932991387	-87.4796705309263	0	0.9399999998679526	0	44.8999315503051	-10.09979346681325	0	59.82704800597323	1.044178969452941	-5.024645793628469	0	0	44.8999315503051	-10.09979346681325	0	59.82704800597323	1.044178969452941	-5.024645793628469	0	0	-7.373490658983972	0.2774050250807757	-0.8629189164551714	9.194166953285798	-10.79435647273364	-7.755577581017294	5.101407617024896	1.716475060342289	0	0	0	-11.73650702465822	0	88.31027841584051	1.716475060342289	0	0
0.84	-0.8392941138036938	6.878387321837182	-87.64438553926936	0	0.9399999998679526	0	44.89999469743213	-10.09957415173771	0	59.82713376984627	1.044180466314905	-5.024575232455065	0	0	44.89999469743213	-10.09957415173771	0	59.82713376984627	1.044180466314905	-5.024575232455065	0	0	-8.397130736439584	0.1121610408556337	-0.9872319132159917	10.91590985877455	-10.5611690597668	-7.690877278655469	5.348216535584988	1.715720939192763	0	0	0	-11.73756273992742	0	88.31102069910031	1.715720939192763	0	0
0.85	-0.9305065788450617	7.949180179193037	-87.37420647784869	0	0.9399999998679526	0	44.90007475575956	-10.09929618964912	0	59.82724242418734	1.044182362690903	-5.024485836669955	0	0	44.90007475575956	-10.09929618964912	0	59.82724242418734	1.044182362690903	-5.024485836669955	0	0	-9.325660956379489	0.09081247687904757	-1.523546938479006	12.6412219344856	-10.23510162309691	-7.68278712572387	5.53297895049664	1.714764990233486	0	0	0	-11.73890080220031	0	88.3119616419559	1.714764990233486	0	0
0.86	-0.8844078619274626	9.07544198122447	-87.67814312129039	0	0.9399999998679526	0	44.90013089691637	-10.09910199819489	0	59.82731873151018	1.04418369450493	-5.024423458176071	0	0	44.90013089691637	-10.09910199819489	0	59.82731873151018	1.04418369450493	-5.024423458176071	0	0	-9.932224647712717	-0.1678765676336398	-1.310934331973096	14.01985931242765	-9.921439002130915	-7.928343022607143	5.708272839473226	1.714094130684443	0	0	0	-11.73984034188722	0	88.31262197064741	1.714094130684443	0	0
0.87	-0.7911548456661694	10.23053119452887	-88.20947525075049	0	0.9399999998679526	0	44.90019303973185	-10.09888753695918	0	59.82740323919205	1.044185169442222	-5.024354627990055	0	0	44.90019303973185	-10.09888753695918	0	59.82740323919205	1.044185169442222	-5.024354627990055	0	0	-10.52720616386726	-0.5446595098250133	-0.8472717142723766	15.71155418428006	-9.441069884580344	-8.123074617766472	5.494066808036877	1.713351298288681	0	0	0	-11.74088091882277	0	88.31335314240226	1.713351298288681	0	0
0.88	-0.8248553869920547	11.45949683934808	-88.29267103565115	0	0.9399999998679526	0	44.90027191129861	-10.09861529818449	0	59.82751039236541	1.044187039617901	-5.024267276213347	0	0	44.90027191129861	-10.09861529818449	0	59.82751039236541	1.044187039617901	-5.024267276213347	0	0	-11.11913489800796	-0.803954551544808	-0.7721359802704642	17.70150209177046	-8.774103579805264	-8.122867734125647	4.980259901105972	1.712408726986561	0	0	0	-11.74220098982071	0	88.31428091764668	1.712408726986561	0	0
